<?xml version="1.0" encoding="UTF-8"?>
<svg id="Layer_1" xmlns="http://www.w3.org/2000/svg" version="1.1" viewBox="0 0 660.8 156.7">
  <!-- Generator: Adobe Illustrator 30.6.0, SVG Export Plug-In . SVG Version: 2.1.4 Build 109)  -->
  <defs>
    <style>
      .st0 {
        fill: #101308;
      }
    </style>
  </defs>
  <g id="OZ9FU6.tif">
    <g>
      <path class="st0" d="M517.8,67.5c-.6-.3,0-1.2.2-1.6,5.2-7.4,10.5-14.4,16.3-21.5l5.3-15.5c1.2-3.6,3.4-5.7,6.6-7.6l16.3-10.2,18.5,6.6c-13.3,7.2-25,15.4-36,25.2-9,7.8-16.9,16.4-24.6,25.4-.9-.1-1.7-.2-2.5-.6Z"/>
      <path class="st0" d="M581.3,40.6l7.3-22c.5-1.6,0-2.9-1.6-3.5l-19.5-6.6c1.3-1.6,3.1-1.9,4.6-2.7,2.6-1.4,5-2.6,7.8-3.6S584.1,0,586.6,0c5.9.1,16.6,3.1,19.3,7.2s-.5,13.4-3.3,18.1c-1.1,1.7-2.5,2.9-4.2,3.9l-17.1,11.4Z"/>
      <path class="st0" d="M557.4,56.8l-8.5-.2-10-.3c-.2,0-.5-.4-.5-.8,13.2-13,27.8-24.4,44.5-33.6l-7.6,22.9-10.9,9.1c-1.8,2-4.2,2.8-6.9,2.7Z"/>
    </g>
  </g>
  <g>
    <polygon class="st0" points="94.1 6.2 43.1 89.9 101.2 89.9 146.6 60.6 157.9 89.9 209 89.9 260 6.2 215.1 6.2 188.2 50.2 179.7 23.2 151.6 23.2 112.6 50.6 137.6 6.2 94.1 6.2"/>
    <polygon class="st0" points="217.5 89.9 268.1 6.2 399 6.2 385.3 29.8 301.2 30.8 296.9 38.4 371.1 38.4 358.8 58.7 285.1 58.7 279.4 67.7 363.1 67.7 351.3 89.9 217.5 89.9"/>
    <polygon class="st0" points="359.3 89.9 408 6.2 454.8 6.2 476.1 44 499.7 2.4 543.2 2.4 498.8 87.5 448.7 87.5 425.5 48 401.9 89.9 359.3 89.9"/>
    <g>
      <path class="st0" d="M516.1,95.5l7.2-11.5c8.8-14.1,24.4-22.3,41-21.8l68.9,2.4c6.7.2,13.3,1.4,19.7,3.6h0c6.9,2.4,10,10.5,6.3,16.8l-8.4,14.4c-7.6,13.3-21.7,21.5-37.1,21.4l-33.9-.3c-4.2,0-8.1,2.5-9.8,6.3h0s-42.4,0-42.4,0h0c6.7-15.6,22-25.8,39-25.8h35.6c.3,0,.6-.1.7-.4l6.6-10.9c.3-.6,0-1.3-.7-1.3l-43.8.2c-2,0-3.9,1.1-4.9,2.8l-2.4,3.9h-41.7Z"/>
      <path class="st0" d="M522.7,132.9l-10.4,16.8c-.7,1.2.1,2.7,1.5,2.7h39.6c.6,0,1.2-.3,1.5-.8l10.1-16.2c.7-1.2,0-2.7-1.5-2.7l-39.3-.6c-.6,0-1.2.3-1.5.8Z"/>
    </g>
    <g>
      <polygon class="st0" points="21.4 156.1 32.3 137 18.8 133.1 34.9 131 0 126.4 41.3 121.8 43.4 117.6 35.6 114.8 47.2 112.7 1.3 108.6 80.8 105.5 59.9 141.9 98.9 141.6 84.4 156.1 21.4 156.1"/>
      <path class="st0" d="M150,102.7l-58.6,53.4h28.1l9.8-8.3h28.4l.3,8.3h28.1l1.5-53.4h-37.7ZM159.5,133.9h-14.7l14.7-12.4v12.4Z"/>
      <polygon class="st0" points="287.1 156.1 321.9 98.5 284.5 98.5 252.5 125.6 250.7 100.3 217.6 100.8 186.1 156.1 211.9 156.1 228 130.8 227.4 156.1 244 156.1 272.4 132.3 258.2 156.1 287.1 156.1"/>
      <path class="st0" d="M495,94.2h-46.3c-14.3,0-27.5,7.7-34.6,20.1l-13.3,23.3c-4.9,8.5,1.3,19.1,11.1,19.1h50.6c12.9,0,24.7-7.1,30.7-18.5l13.2-25c4.6-8.6-1.7-19-11.4-19ZM475.7,115.7l-9.2,17.4c-2.3,4.4-6.9,7.2-11.9,7.2h-19.9c-3,0-4.8-3.2-3.4-5.8l10.1-17.8c2.1-3.7,6.1-6,10.3-6h20.8c2.6,0,4.3,2.8,3.1,5.1Z"/>
      <path class="st0" d="M411.3,106c-.8-5.7-5.7-9.9-11.5-9.7l-71.4,2.2-34.1,57.6,72.7.6c14.4.1,27.2-9.1,31.8-22.7,1.2-3.5-.6-7.4-4-8.8l-1.3-.6,3.4-1c8-2.3,13.8-9.3,14.5-17.6ZM366.9,137h0c-1.2,2-3.3,3.2-5.5,3.2h-26l3.6-6.6h26.1c1.7,0,2.8,1.9,1.9,3.3ZM377.8,116.4h0c-1.2,2-3.3,3.2-5.5,3.2h-26l3.6-6.6h26.1c1.7,0,2.8,1.9,1.9,3.3Z"/>
    </g>
  </g>
</svg>